# xmcd CD database file
#
# Track frame offsets:
#	182
#	13997
#	26602
#	41432
#	56115
#	70392
#	85310
#	97827
#	106987
#	118145
#	131600
#	144827
#	156387
#	168360
#	180987
#	193282
#	203655
#	216060
#	225310
#	238912
#	249407
#	262745
#	275557
#	286705
#	296525
#	309115
#	320077
#
# Disc length: 4462 seconds
#
# Revision: 0
# Processed by: cddbd v1.4PL0 Copyright (c) Steve Scherf et al.
# Submitted via: CDex 1.40Release
#
DISCID=80116c1b
DTITLE=Lightnin' Slim - I'm Evil: Rare And Unissued Excello Masters Vol. One
DYEAR=1994
DGENRE=Blues
TTITLE0=Bad Luck
TTITLE1=Rock Me Mama
TTITLE2=What Evil Have I Done
TTITLE3=I'm Him
TTITLE4=I Can't Understand
TTITLE5=Mean O'l Lonesome Train
TTITLE6=Rocky Mountain Blues (aka Lonely Stranger)
TTITLE7=Goin' Home
TTITLE8=I'm Grown
TTITLE9=Bad Luck And Trouble
TTITLE10=Lightnin's Troubles
TTITLE11=It's Mighty Crazy
TTITLE12=Farming Blues
TTITLE13=Have Your Way
TTITLE14=Rooster Blues
TTITLE15=I Just Don't Know
TTITLE16=My Little Angel Child
TTITLE17=Too Close Blues
TTITLE18=Nothin' But The Devil
TTITLE19=Cool Down Baby
TTITLE20=Goin' Away Blues
TTITLE21=I'm Tired Waitin' Baby
TTITLE22=Bad Luck Is Fallin'
TTITLE23=I'm Warnin' You Baby
TTITLE24=Lonely Stranger
TTITLE25=I'm Evil
TTITLE26=The Strangest Feelin'
EXTD=YEAR: 1994 ID3G: 0
EXTT0=
EXTT1=
EXTT2=
EXTT3=
EXTT4=
EXTT5=
EXTT6=
EXTT7=
EXTT8=
EXTT9=
EXTT10=
EXTT11=
EXTT12=
EXTT13=
EXTT14=
EXTT15=
EXTT16=
EXTT17=
EXTT18=
EXTT19=
EXTT20=
EXTT21=
EXTT22=
EXTT23=
EXTT24=
EXTT25=
EXTT26=
PLAYORDER=
